<mxfile host="app.diagrams.net" modified="2022-01-31T19:00:58.306Z" agent="5.0 (Windows)" etag="0T0NP6lX82cqR-a7E2iA" version="16.5.2" type="github">
  <diagram id="C5RBs43oDa-KdzZeNtuy" name="Page-1">
    <mxGraphModel dx="1278" dy="1733" grid="1" gridSize="10" guides="1" tooltips="1" connect="1" arrows="1" fold="1" page="1" pageScale="1" pageWidth="827" pageHeight="1169" math="0" shadow="0">
      <root>
        <mxCell id="WIyWlLk6GJQsqaUBKTNV-0" />
        <mxCell id="WIyWlLk6GJQsqaUBKTNV-1" parent="WIyWlLk6GJQsqaUBKTNV-0" />
        <mxCell id="cMAkUVN1KesiIpSyEMC5-0" value="EstadoNormal" style="swimlane;fontStyle=2;align=center;verticalAlign=top;childLayout=stackLayout;horizontal=1;startSize=26;horizontalStack=0;resizeParent=1;resizeLast=0;collapsible=1;marginBottom=0;rounded=0;shadow=0;strokeWidth=1;" parent="WIyWlLk6GJQsqaUBKTNV-1" vertex="1">
          <mxGeometry y="30" width="160" height="100" as="geometry">
            <mxRectangle x="230" y="140" width="160" height="26" as="alternateBounds" />
          </mxGeometry>
        </mxCell>
        <mxCell id="cMAkUVN1KesiIpSyEMC5-1" value="" style="line;html=1;strokeWidth=1;align=left;verticalAlign=middle;spacingTop=-1;spacingLeft=3;spacingRight=3;rotatable=0;labelPosition=right;points=[];portConstraint=eastwest;" parent="cMAkUVN1KesiIpSyEMC5-0" vertex="1">
          <mxGeometry y="26" width="160" height="8" as="geometry" />
        </mxCell>
        <mxCell id="cMAkUVN1KesiIpSyEMC5-2" value="&lt;p style=&quot;margin: 0px ; margin-left: 4px&quot;&gt;+ registerObserver(): void&lt;br&gt;+ removeObserver(): void&lt;/p&gt;&lt;p style=&quot;margin: 0px ; margin-left: 4px&quot;&gt;+ notifyObserver(): void&lt;/p&gt;" style="text;html=1;align=center;verticalAlign=middle;resizable=0;points=[];autosize=1;strokeColor=none;fillColor=none;" parent="cMAkUVN1KesiIpSyEMC5-0" vertex="1">
          <mxGeometry y="34" width="160" height="50" as="geometry" />
        </mxCell>
        <mxCell id="cMAkUVN1KesiIpSyEMC5-5" value="EstadoForte" style="swimlane;fontStyle=2;align=center;verticalAlign=top;childLayout=stackLayout;horizontal=1;startSize=26;horizontalStack=0;resizeParent=1;resizeLast=0;collapsible=1;marginBottom=0;rounded=0;shadow=0;strokeWidth=1;" parent="WIyWlLk6GJQsqaUBKTNV-1" vertex="1">
          <mxGeometry x="170" y="30" width="160" height="100" as="geometry">
            <mxRectangle x="310" y="50" width="160" height="26" as="alternateBounds" />
          </mxGeometry>
        </mxCell>
        <mxCell id="cMAkUVN1KesiIpSyEMC5-6" value="" style="line;html=1;strokeWidth=1;align=left;verticalAlign=middle;spacingTop=-1;spacingLeft=3;spacingRight=3;rotatable=0;labelPosition=right;points=[];portConstraint=eastwest;" parent="cMAkUVN1KesiIpSyEMC5-5" vertex="1">
          <mxGeometry y="26" width="160" height="8" as="geometry" />
        </mxCell>
        <mxCell id="cMAkUVN1KesiIpSyEMC5-7" value="&lt;p style=&quot;margin: 0px ; margin-left: 4px&quot;&gt;+ registerObserver(): void&lt;br&gt;+ removeObserver(): void&lt;/p&gt;&lt;p style=&quot;margin: 0px ; margin-left: 4px&quot;&gt;+ notifyObserver(): void&lt;/p&gt;" style="text;html=1;align=center;verticalAlign=middle;resizable=0;points=[];autosize=1;strokeColor=none;fillColor=none;" parent="cMAkUVN1KesiIpSyEMC5-5" vertex="1">
          <mxGeometry y="34" width="160" height="50" as="geometry" />
        </mxCell>
        <mxCell id="cMAkUVN1KesiIpSyEMC5-8" value="EstadoMorto" style="swimlane;fontStyle=2;align=center;verticalAlign=top;childLayout=stackLayout;horizontal=1;startSize=26;horizontalStack=0;resizeParent=1;resizeLast=0;collapsible=1;marginBottom=0;rounded=0;shadow=0;strokeWidth=1;" parent="WIyWlLk6GJQsqaUBKTNV-1" vertex="1">
          <mxGeometry x="520" y="30" width="160" height="100" as="geometry">
            <mxRectangle x="230" y="140" width="160" height="26" as="alternateBounds" />
          </mxGeometry>
        </mxCell>
        <mxCell id="cMAkUVN1KesiIpSyEMC5-9" value="" style="line;html=1;strokeWidth=1;align=left;verticalAlign=middle;spacingTop=-1;spacingLeft=3;spacingRight=3;rotatable=0;labelPosition=right;points=[];portConstraint=eastwest;" parent="cMAkUVN1KesiIpSyEMC5-8" vertex="1">
          <mxGeometry y="26" width="160" height="8" as="geometry" />
        </mxCell>
        <mxCell id="cMAkUVN1KesiIpSyEMC5-10" value="&lt;p style=&quot;margin: 0px ; margin-left: 4px&quot;&gt;+ registerObserver(): void&lt;br&gt;+ removeObserver(): void&lt;/p&gt;&lt;p style=&quot;margin: 0px ; margin-left: 4px&quot;&gt;+ notifyObserver(): void&lt;/p&gt;" style="text;html=1;align=center;verticalAlign=middle;resizable=0;points=[];autosize=1;strokeColor=none;fillColor=none;" parent="cMAkUVN1KesiIpSyEMC5-8" vertex="1">
          <mxGeometry y="34" width="160" height="50" as="geometry" />
        </mxCell>
        <mxCell id="cMAkUVN1KesiIpSyEMC5-11" value="EstadoPerigo" style="swimlane;fontStyle=2;align=center;verticalAlign=top;childLayout=stackLayout;horizontal=1;startSize=26;horizontalStack=0;resizeParent=1;resizeLast=0;collapsible=1;marginBottom=0;rounded=0;shadow=0;strokeWidth=1;" parent="WIyWlLk6GJQsqaUBKTNV-1" vertex="1">
          <mxGeometry x="350" y="30" width="160" height="100" as="geometry">
            <mxRectangle x="230" y="140" width="160" height="26" as="alternateBounds" />
          </mxGeometry>
        </mxCell>
        <mxCell id="cMAkUVN1KesiIpSyEMC5-12" value="" style="line;html=1;strokeWidth=1;align=left;verticalAlign=middle;spacingTop=-1;spacingLeft=3;spacingRight=3;rotatable=0;labelPosition=right;points=[];portConstraint=eastwest;" parent="cMAkUVN1KesiIpSyEMC5-11" vertex="1">
          <mxGeometry y="26" width="160" height="8" as="geometry" />
        </mxCell>
        <mxCell id="cMAkUVN1KesiIpSyEMC5-13" value="&lt;p style=&quot;margin: 0px ; margin-left: 4px&quot;&gt;+ registerObserver(): void&lt;br&gt;+ removeObserver(): void&lt;/p&gt;&lt;p style=&quot;margin: 0px ; margin-left: 4px&quot;&gt;+ notifyObserver(): void&lt;/p&gt;" style="text;html=1;align=center;verticalAlign=middle;resizable=0;points=[];autosize=1;strokeColor=none;fillColor=none;" parent="cMAkUVN1KesiIpSyEMC5-11" vertex="1">
          <mxGeometry y="34" width="160" height="50" as="geometry" />
        </mxCell>
        <mxCell id="cMAkUVN1KesiIpSyEMC5-14" value="&lt;p style=&quot;margin: 0px ; margin-top: 4px ; text-align: center&quot;&gt;&lt;b&gt;Personagem&lt;/b&gt;&lt;/p&gt;&lt;hr size=&quot;1&quot;&gt;&lt;p style=&quot;margin: 0px ; margin-left: 4px&quot;&gt;+ field: Type&lt;/p&gt;&lt;hr size=&quot;1&quot;&gt;&lt;p style=&quot;margin: 0px ; margin-left: 4px&quot;&gt;+ method(): Type&lt;/p&gt;" style="verticalAlign=top;align=left;overflow=fill;fontSize=12;fontFamily=Helvetica;html=1;" parent="WIyWlLk6GJQsqaUBKTNV-1" vertex="1">
          <mxGeometry x="560" y="-210" width="160" height="90" as="geometry" />
        </mxCell>
        <mxCell id="cMAkUVN1KesiIpSyEMC5-15" value="" style="endArrow=open;html=1;endSize=12;startArrow=diamondThin;startSize=14;startFill=0;edgeStyle=orthogonalEdgeStyle;align=left;verticalAlign=bottom;rounded=0;entryX=1;entryY=0.5;entryDx=0;entryDy=0;exitX=0;exitY=0.5;exitDx=0;exitDy=0;" parent="WIyWlLk6GJQsqaUBKTNV-1" source="cMAkUVN1KesiIpSyEMC5-14" target="cMAkUVN1KesiIpSyEMC5-20" edge="1">
          <mxGeometry x="-1" y="3" relative="1" as="geometry">
            <mxPoint x="530" y="-160" as="sourcePoint" />
            <mxPoint x="405" y="-155" as="targetPoint" />
          </mxGeometry>
        </mxCell>
        <mxCell id="cMAkUVN1KesiIpSyEMC5-16" value="" style="endArrow=block;dashed=1;endFill=0;endSize=12;html=1;rounded=0;exitX=0.5;exitY=0;exitDx=0;exitDy=0;entryX=0;entryY=1;entryDx=0;entryDy=0;" parent="WIyWlLk6GJQsqaUBKTNV-1" source="cMAkUVN1KesiIpSyEMC5-0" target="cMAkUVN1KesiIpSyEMC5-20" edge="1">
          <mxGeometry width="160" relative="1" as="geometry">
            <mxPoint x="10" y="-30" as="sourcePoint" />
            <mxPoint x="210" y="-100" as="targetPoint" />
          </mxGeometry>
        </mxCell>
        <mxCell id="cMAkUVN1KesiIpSyEMC5-17" value="" style="endArrow=block;dashed=1;endFill=0;endSize=12;html=1;rounded=0;exitX=0.5;exitY=0;exitDx=0;exitDy=0;entryX=0.5;entryY=1;entryDx=0;entryDy=0;" parent="WIyWlLk6GJQsqaUBKTNV-1" source="cMAkUVN1KesiIpSyEMC5-5" target="cMAkUVN1KesiIpSyEMC5-20" edge="1">
          <mxGeometry width="160" relative="1" as="geometry">
            <mxPoint x="57.5" y="40" as="sourcePoint" />
            <mxPoint x="258.75" y="-100" as="targetPoint" />
          </mxGeometry>
        </mxCell>
        <mxCell id="cMAkUVN1KesiIpSyEMC5-18" value="" style="endArrow=block;dashed=1;endFill=0;endSize=12;html=1;rounded=0;exitX=0.5;exitY=0;exitDx=0;exitDy=0;entryX=0.75;entryY=1;entryDx=0;entryDy=0;" parent="WIyWlLk6GJQsqaUBKTNV-1" source="cMAkUVN1KesiIpSyEMC5-11" target="cMAkUVN1KesiIpSyEMC5-20" edge="1">
          <mxGeometry width="160" relative="1" as="geometry">
            <mxPoint x="67.5" y="50" as="sourcePoint" />
            <mxPoint x="307.5" y="-100" as="targetPoint" />
          </mxGeometry>
        </mxCell>
        <mxCell id="cMAkUVN1KesiIpSyEMC5-19" value="" style="endArrow=block;dashed=1;endFill=0;endSize=12;html=1;rounded=0;exitX=0.5;exitY=0;exitDx=0;exitDy=0;entryX=1;entryY=1;entryDx=0;entryDy=0;" parent="WIyWlLk6GJQsqaUBKTNV-1" source="cMAkUVN1KesiIpSyEMC5-8" target="cMAkUVN1KesiIpSyEMC5-20" edge="1">
          <mxGeometry width="160" relative="1" as="geometry">
            <mxPoint x="77.5" y="60" as="sourcePoint" />
            <mxPoint x="356.25" y="-100" as="targetPoint" />
          </mxGeometry>
        </mxCell>
        <mxCell id="cMAkUVN1KesiIpSyEMC5-20" value="&lt;p style=&quot;margin: 0px ; margin-top: 4px ; text-align: center&quot;&gt;&lt;i&gt;&amp;lt;&amp;lt;Interface&amp;gt;&amp;gt;&lt;/i&gt;&lt;b&gt;&lt;br&gt;&lt;/b&gt;&lt;/p&gt;&lt;p style=&quot;margin: 0px ; margin-top: 4px ; text-align: center&quot;&gt;&lt;b&gt;Estado&lt;/b&gt;&lt;br&gt;&lt;b&gt;&lt;/b&gt;&lt;/p&gt;&lt;hr size=&quot;1&quot;&gt;&lt;p style=&quot;margin: 0px ; margin-left: 4px&quot;&gt;- p: Personagem&lt;br&gt;- limiteInferior: Int&lt;/p&gt;&lt;p style=&quot;margin: 0px ; margin-left: 4px&quot;&gt;- limiteSuperior: Int&lt;/p&gt;&lt;hr size=&quot;1&quot;&gt;&lt;p style=&quot;margin: 0px ; margin-left: 4px&quot;&gt;+ setLimites(): void&lt;br&gt;+ ganharLife(Int): void&lt;/p&gt;&lt;p style=&quot;margin: 0px ; margin-left: 4px&quot;&gt;+ sofrerAtaque(Int): void&lt;/p&gt;&lt;p style=&quot;margin: 0px ; margin-left: 4px&quot;&gt;+ verificarEstado(): void&lt;br&gt;&lt;/p&gt;" style="verticalAlign=top;align=left;overflow=fill;fontSize=12;fontFamily=Helvetica;html=1;" parent="WIyWlLk6GJQsqaUBKTNV-1" vertex="1">
          <mxGeometry x="200" y="-250" width="190" height="170" as="geometry" />
        </mxCell>
      </root>
    </mxGraphModel>
  </diagram>
</mxfile>
